<?xml version="1.0" encoding="UTF-8" standalone="no"?>
<!-- Created with Inkscape (http://www.inkscape.org/) -->

<svg
   xmlns:dc="http://purl.org/dc/elements/1.1/"
   xmlns:cc="http://creativecommons.org/ns#"
   xmlns:rdf="http://www.w3.org/1999/02/22-rdf-syntax-ns#"
   xmlns:svg="http://www.w3.org/2000/svg"
   xmlns="http://www.w3.org/2000/svg"
   xmlns:sodipodi="http://sodipodi.sourceforge.net/DTD/sodipodi-0.dtd"
   xmlns:inkscape="http://www.inkscape.org/namespaces/inkscape"
   id="svg3039"
   version="1.1"
   inkscape:version="0.48.4 r9939"
   width="500"
   height="150"
   sodipodi:docname="soccerball.svg">
  <metadata
     id="metadata3045">
    <rdf:RDF>
      <cc:Work
         rdf:about="">
        <dc:format>image/svg+xml</dc:format>
        <dc:type
           rdf:resource="http://purl.org/dc/dcmitype/StillImage" />
        <dc:title></dc:title>
      </cc:Work>
    </rdf:RDF>
  </metadata>
  <defs
     id="defs3043" />
  <sodipodi:namedview
     pagecolor="#ffffff"
     bordercolor="#666666"
     borderopacity="1"
     objecttolerance="10"
     gridtolerance="10"
     guidetolerance="10"
     inkscape:pageopacity="0"
     inkscape:pageshadow="2"
     inkscape:window-width="1920"
     inkscape:window-height="1056"
     id="namedview3041"
     showgrid="false"
     inkscape:zoom="1.84"
     inkscape:cx="159.1071"
     inkscape:cy="111.73382"
     inkscape:window-x="0"
     inkscape:window-y="24"
     inkscape:window-maximized="1"
     inkscape:current-layer="g4065"
     showguides="true"
     inkscape:guide-bbox="true" />
  <g
     id="g4065"
     transform="matrix(1.6153648,0,0,1.6153648,-517.5897,-426.0614)"
     style="stroke:#ffffff;stroke-opacity:1">
    <path
       transform="matrix(1.0010493,0,0,1.1010117,-0.93233833,-29.795324)"
       d="m 460.04419,319.69794 c 0,14.58985 -13.13737,26.41725 -29.34314,26.41725 -16.20577,0 -29.34314,-11.8274 -29.34314,-26.41725 0,-14.58985 13.13737,-26.41726 29.34314,-26.41726 16.20577,0 29.34314,11.82741 29.34314,26.41726 z"
       sodipodi:ry="26.417257"
       sodipodi:rx="29.343142"
       sodipodi:cy="319.69794"
       sodipodi:cx="430.70105"
       id="path3101"
       style="fill:none;stroke:#ffffff;stroke-width:3.71484684999999981;stroke-linecap:butt;stroke-linejoin:bevel;stroke-miterlimit:4;stroke-opacity:1;stroke-dasharray:none"
       sodipodi:type="arc" />
    <path
       sodipodi:nodetypes="ccccc"
       id="path3887"
       inkscape:connector-curvature="0"
       d="m 405.3387,321.26359 -3.6743,3.05706 0.37364,-11.00543 3.90625,-6.89538 3.50206,3.63451"
       style="fill:none;stroke:#ffffff;stroke-width:1px;stroke-linecap:butt;stroke-linejoin:miter;stroke-opacity:1" />
    <path
       sodipodi:nodetypes="csccccc"
       inkscape:connector-curvature="0"
       d="m 421.95829,318.64113 c 0,0 6.24483,2.78615 7.87809,3.65082 1.63326,0.86467 5.52427,2.78616 5.52427,2.78616 m 3.73141,8.00797 c -2.92221,4.57558 -6.17148,8.60606 -10.17664,11.37672 m -12.55757,-4.06326 -3.68578,-15.14295"
       style="fill:none;stroke:#ffffff;stroke-width:1px;stroke-linecap:butt;stroke-linejoin:miter;stroke-opacity:1"
       id="path4069" />
    <path
       sodipodi:nodetypes="sscscccs"
       inkscape:connector-curvature="0"
       d="m 425.88315,351.22282 c 1.42663,0.40761 7.54076,0.0679 5.91033,-1.22282 -1.63044,-1.29076 -3.01851,-5.63885 -3.01851,-5.63885 0,0 -2.54861,0.0453 -6.29551,-1.10752 -3.7469,-1.15289 -6.06345,-3.115 -6.06345,-3.115 l -3.98394,4.42659 3.31182,2.53056 c 0,0 8.71263,3.71944 10.13926,4.12704 z"
       style="fill:#ffffff;fill-opacity:1;stroke:#ffffff;stroke-width:1px;stroke-linecap:butt;stroke-linejoin:miter;stroke-opacity:1"
       id="path4071" />
    <path
       sodipodi:nodetypes="ccc"
       inkscape:connector-curvature="0"
       d="m 448.84852,336.08985 2.78192,5.28243 -9.85055,8.22011"
       style="fill:none;stroke:#ffffff;stroke-width:1px;stroke-linecap:butt;stroke-linejoin:miter;stroke-opacity:1"
       id="path4073" />
    <path
       id="path4017"
       d="m 458.69565,317.79891 c 2.94654,8.50824 0.71253,18.75808 -6.58967,23.57337"
       style="fill:none;stroke:#ffffff;stroke-width:1px;stroke-linecap:butt;stroke-linejoin:miter;stroke-opacity:1"
       inkscape:connector-curvature="0" />
    <path
       sodipodi:nodetypes="sccscsccs"
       inkscape:connector-curvature="0"
       id="path4015"
       d="m 452.44565,329.41576 c 0.67935,-2.37772 0.70394,-7.32646 0.70394,-7.32646 -5.53947,-5.89807 -8.99506,-5.13161 -8.99506,-5.13161 0,0 -1.95878,2.46342 -3.92889,3.95798 -1.97011,1.49457 -4.90628,4.19132 -4.90628,4.19132 0,0 1.96278,4.24642 2.251,5.39931 0.28822,1.15289 0.53473,5.79169 0.53473,5.79169 l 10.76745,-0.18824 c 0,0 2.89377,-4.31627 3.57311,-6.69399 z"
       style="fill:#ffffff;fill-opacity:1;stroke:#ffffff;stroke-width:1px;stroke-linecap:butt;stroke-linejoin:miter;stroke-opacity:1" />
    <path
       sodipodi:nodetypes="cc"
       inkscape:connector-curvature="0"
       d="m 453.26087,322.17488 c 0,0 5.36685,-3.49282 5.43478,-4.37597"
       style="fill:none;stroke:#ffffff;stroke-width:1px;stroke-linecap:butt;stroke-linejoin:miter;stroke-opacity:1"
       id="path4077" />
    <path
       sodipodi:nodetypes="csc"
       inkscape:connector-curvature="0"
       id="path3993"
       d="m 441.77989,304.07609 c 0,0 0.59493,0.73479 1.00254,2.97664 0.40761,2.24185 1.56733,9.80675 1.56733,9.80675"
       style="fill:none;stroke:#ffffff;stroke-width:1px;stroke-linecap:butt;stroke-linejoin:miter;stroke-opacity:1" />
    <path
       sodipodi:nodetypes="cc"
       inkscape:connector-curvature="0"
       id="path3991"
       d="m 429.42003,299.84163 -11.64097,9.72047"
       style="fill:none;stroke:#ffffff;stroke-width:1px;stroke-linecap:butt;stroke-linejoin:miter;stroke-opacity:1" />
    <path
       d="m 413.07141,309.46601 c -2.44989,0.0961 -3.63794,0.6064 -3.63794,0.6064 0,0 -1.3832,2.2917 -2.50412,5.00909 -1.12093,2.71739 -1.56251,6.1481 -1.56251,6.1481 0,0 1.97012,2.07201 3.19294,2.95516 1.22283,0.88315 4.6875,2.71739 4.6875,2.71739 0,0 2.58153,-1.5625 4.14403,-3.19293 1.5625,-1.63044 4.61132,-5.05531 4.61132,-5.05531 0,0 -0.73904,-2.34958 -2.0298,-4.86317 -1.29076,-2.51359 -2.29982,-4.25426 -2.29982,-4.25426 0,0 -2.1517,-0.16655 -4.6016,-0.0705 z"
       style="fill:#ffffff;fill-opacity:1;fill-rule:nonzero;stroke:#ffffff;stroke-width:1px;stroke-linecap:butt;stroke-linejoin:miter;stroke-opacity:1"
       id="path4081"
       inkscape:connector-curvature="0" />
    <path
       sodipodi:nodetypes="ccscc"
       inkscape:connector-curvature="0"
       d="m 447.41797,299.23412 -5.77332,4.8949 c 0,0 -4.99383,-2.63446 -6.42046,-3.24587 -1.42663,-0.61141 -5.89498,-0.9553 -5.89498,-0.9553 0.12589,-2.10381 0.37227,-4.70908 -0.3575,-6.45819 0,0 12.84113,-1.45522 18.44626,5.76446 z"
       style="fill:#ffffff;fill-opacity:1;stroke:#ffffff;stroke-width:1px;stroke-linecap:butt;stroke-linejoin:miter;stroke-opacity:1"
       id="path4083" />
  </g>
  <text
     xml:space="preserve"
     style="font-size:145.76115416999999752px;font-style:normal;font-variant:normal;font-weight:bold;font-stretch:normal;line-height:125%;letter-spacing:0px;word-spacing:0px;fill:#ffffff;fill-opacity:1;stroke:#ffffff;font-family:Droid Sans;-inkscape-font-specification:Droid Sans Bold;stroke-opacity:1"
     x="-2.4648151"
     y="142.57162"
     id="text4085"
     sodipodi:linespacing="125%"><tspan
       sodipodi:role="line"
       x="-2.4648151"
       y="142.57162"
       id="tspan4087"><tspan
         x="-2.4648151"
         y="142.57162"
         style="font-size:181.39164734000001999px;line-height:125%;font-family:Droid Sans;-inkscape-font-specification:Droid Sans Bold;stroke:#ffffff;stroke-opacity:1;fill:#ffffff;fill-opacity:1"
         id="tspan4089">G  Kid</tspan></tspan></text>
</svg>
